<mxfile host="app.diagrams.net" modified="2024-02-17T10:42:27.181Z" agent="Mozilla/5.0 (Windows NT 10.0; Win64; x64) AppleWebKit/537.36 (KHTML, like Gecko) Chrome/121.0.0.0 Safari/537.36" etag="UUMSypaWh-TFLdGc0_EG" version="23.1.5" type="device" pages="2">
  <diagram name="PÃ¡gina-1" id="vdO5x0nZiw3C22g-sv8F">
    <mxGraphModel dx="2354" dy="2262" grid="0" gridSize="10" guides="1" tooltips="1" connect="1" arrows="0" fold="1" page="0" pageScale="1" pageWidth="827" pageHeight="1169" math="0" shadow="0">
      <root>
        <mxCell id="0" />
        <mxCell id="1" parent="0" />
        <mxCell id="UaZMQa4N5eyTNxJowuL3-2" value="Pablo&lt;br&gt;Lugo" style="ellipse;whiteSpace=wrap;html=1;aspect=fixed;" vertex="1" parent="1">
          <mxGeometry x="877" y="-566" width="80" height="80" as="geometry" />
        </mxCell>
        <mxCell id="UaZMQa4N5eyTNxJowuL3-72" style="edgeStyle=none;curved=1;rounded=0;orthogonalLoop=1;jettySize=auto;html=1;exitX=1;exitY=0;exitDx=0;exitDy=0;fontSize=12;startSize=8;endSize=8;endArrow=none;endFill=0;" edge="1" parent="1" source="UaZMQa4N5eyTNxJowuL3-3" target="UaZMQa4N5eyTNxJowuL3-5">
          <mxGeometry relative="1" as="geometry">
            <Array as="points">
              <mxPoint x="498" y="-563" />
            </Array>
          </mxGeometry>
        </mxCell>
        <mxCell id="UaZMQa4N5eyTNxJowuL3-73" value="49.3" style="edgeLabel;html=1;align=center;verticalAlign=middle;resizable=0;points=[];fontSize=12;" vertex="1" connectable="0" parent="UaZMQa4N5eyTNxJowuL3-72">
          <mxGeometry x="-0.4994" y="-3" relative="1" as="geometry">
            <mxPoint as="offset" />
          </mxGeometry>
        </mxCell>
        <mxCell id="UaZMQa4N5eyTNxJowuL3-74" style="edgeStyle=none;curved=1;rounded=0;orthogonalLoop=1;jettySize=auto;html=1;exitX=0.5;exitY=0;exitDx=0;exitDy=0;fontSize=12;startSize=8;endSize=8;entryX=0.5;entryY=1;entryDx=0;entryDy=0;endArrow=none;endFill=0;" edge="1" parent="1" source="UaZMQa4N5eyTNxJowuL3-3" target="UaZMQa4N5eyTNxJowuL3-16">
          <mxGeometry relative="1" as="geometry">
            <mxPoint x="317.6595318134014" y="-651.5055272028997" as="targetPoint" />
          </mxGeometry>
        </mxCell>
        <mxCell id="UaZMQa4N5eyTNxJowuL3-75" value="47" style="edgeLabel;html=1;align=center;verticalAlign=middle;resizable=0;points=[];fontSize=12;" vertex="1" connectable="0" parent="UaZMQa4N5eyTNxJowuL3-74">
          <mxGeometry x="-0.0178" y="2" relative="1" as="geometry">
            <mxPoint y="-1" as="offset" />
          </mxGeometry>
        </mxCell>
        <mxCell id="UaZMQa4N5eyTNxJowuL3-76" style="edgeStyle=none;curved=1;rounded=0;orthogonalLoop=1;jettySize=auto;html=1;exitX=1;exitY=0;exitDx=0;exitDy=0;fontSize=12;startSize=8;endSize=8;endArrow=none;endFill=0;" edge="1" parent="1" source="UaZMQa4N5eyTNxJowuL3-3" target="UaZMQa4N5eyTNxJowuL3-7">
          <mxGeometry relative="1" as="geometry" />
        </mxCell>
        <mxCell id="UaZMQa4N5eyTNxJowuL3-77" value="45.4" style="edgeLabel;html=1;align=center;verticalAlign=middle;resizable=0;points=[];fontSize=12;" vertex="1" connectable="0" parent="UaZMQa4N5eyTNxJowuL3-76">
          <mxGeometry x="0.0714" y="-1" relative="1" as="geometry">
            <mxPoint as="offset" />
          </mxGeometry>
        </mxCell>
        <mxCell id="UaZMQa4N5eyTNxJowuL3-78" style="edgeStyle=none;curved=1;rounded=0;orthogonalLoop=1;jettySize=auto;html=1;exitX=0;exitY=0;exitDx=0;exitDy=0;fontSize=12;startSize=8;endSize=8;endArrow=none;endFill=0;" edge="1" parent="1" source="UaZMQa4N5eyTNxJowuL3-3" target="UaZMQa4N5eyTNxJowuL3-10">
          <mxGeometry relative="1" as="geometry" />
        </mxCell>
        <mxCell id="UaZMQa4N5eyTNxJowuL3-79" value="51" style="edgeLabel;html=1;align=center;verticalAlign=middle;resizable=0;points=[];fontSize=12;" vertex="1" connectable="0" parent="UaZMQa4N5eyTNxJowuL3-78">
          <mxGeometry x="0.0059" y="-1" relative="1" as="geometry">
            <mxPoint y="1" as="offset" />
          </mxGeometry>
        </mxCell>
        <mxCell id="UaZMQa4N5eyTNxJowuL3-80" style="edgeStyle=none;curved=1;rounded=0;orthogonalLoop=1;jettySize=auto;html=1;exitX=0;exitY=0.5;exitDx=0;exitDy=0;fontSize=12;startSize=8;endSize=8;endArrow=none;endFill=0;" edge="1" parent="1" source="UaZMQa4N5eyTNxJowuL3-3" target="UaZMQa4N5eyTNxJowuL3-11">
          <mxGeometry relative="1" as="geometry" />
        </mxCell>
        <mxCell id="UaZMQa4N5eyTNxJowuL3-81" value="50.9" style="edgeLabel;html=1;align=center;verticalAlign=middle;resizable=0;points=[];fontSize=12;" vertex="1" connectable="0" parent="UaZMQa4N5eyTNxJowuL3-80">
          <mxGeometry x="-0.0735" y="1" relative="1" as="geometry">
            <mxPoint as="offset" />
          </mxGeometry>
        </mxCell>
        <mxCell id="UaZMQa4N5eyTNxJowuL3-86" style="edgeStyle=none;curved=1;rounded=0;orthogonalLoop=1;jettySize=auto;html=1;exitX=1;exitY=0.5;exitDx=0;exitDy=0;fontSize=12;startSize=8;endSize=8;endArrow=none;endFill=0;" edge="1" parent="1" source="UaZMQa4N5eyTNxJowuL3-3" target="UaZMQa4N5eyTNxJowuL3-2">
          <mxGeometry relative="1" as="geometry" />
        </mxCell>
        <mxCell id="UaZMQa4N5eyTNxJowuL3-87" value="71.4" style="edgeLabel;html=1;align=center;verticalAlign=middle;resizable=0;points=[];fontSize=12;" vertex="1" connectable="0" parent="UaZMQa4N5eyTNxJowuL3-86">
          <mxGeometry x="-0.004" y="-1" relative="1" as="geometry">
            <mxPoint x="1" as="offset" />
          </mxGeometry>
        </mxCell>
        <mxCell id="UaZMQa4N5eyTNxJowuL3-145" style="edgeStyle=none;curved=1;rounded=0;orthogonalLoop=1;jettySize=auto;html=1;exitX=1;exitY=0.5;exitDx=0;exitDy=0;entryX=0;entryY=1;entryDx=0;entryDy=0;fontSize=12;startSize=8;endSize=8;endArrow=none;endFill=0;" edge="1" parent="1" source="UaZMQa4N5eyTNxJowuL3-3" target="UaZMQa4N5eyTNxJowuL3-121">
          <mxGeometry relative="1" as="geometry" />
        </mxCell>
        <mxCell id="UaZMQa4N5eyTNxJowuL3-146" value="43.7" style="edgeLabel;html=1;align=center;verticalAlign=middle;resizable=0;points=[];fontSize=12;" vertex="1" connectable="0" parent="UaZMQa4N5eyTNxJowuL3-145">
          <mxGeometry x="0.0113" y="5" relative="1" as="geometry">
            <mxPoint x="-1" as="offset" />
          </mxGeometry>
        </mxCell>
        <mxCell id="UaZMQa4N5eyTNxJowuL3-3" value="Santiago Aeropuerto" style="ellipse;whiteSpace=wrap;html=1;aspect=fixed;" vertex="1" parent="1">
          <mxGeometry x="248" y="-385" width="80" height="80" as="geometry" />
        </mxCell>
        <mxCell id="UaZMQa4N5eyTNxJowuL3-17" style="edgeStyle=none;curved=1;rounded=0;orthogonalLoop=1;jettySize=auto;html=1;exitX=0;exitY=0.5;exitDx=0;exitDy=0;fontSize=12;startSize=8;endSize=8;endArrow=none;endFill=0;" edge="1" parent="1" source="UaZMQa4N5eyTNxJowuL3-5" target="UaZMQa4N5eyTNxJowuL3-16">
          <mxGeometry relative="1" as="geometry" />
        </mxCell>
        <mxCell id="UaZMQa4N5eyTNxJowuL3-19" value="4.6" style="edgeLabel;html=1;align=center;verticalAlign=middle;resizable=0;points=[];fontSize=12;" vertex="1" connectable="0" parent="UaZMQa4N5eyTNxJowuL3-17">
          <mxGeometry x="0.0738" y="3" relative="1" as="geometry">
            <mxPoint as="offset" />
          </mxGeometry>
        </mxCell>
        <mxCell id="UaZMQa4N5eyTNxJowuL3-34" style="edgeStyle=none;curved=1;rounded=0;orthogonalLoop=1;jettySize=auto;html=1;exitX=0;exitY=0;exitDx=0;exitDy=0;fontSize=12;startSize=8;endSize=8;endArrow=none;endFill=0;" edge="1" parent="1" source="UaZMQa4N5eyTNxJowuL3-5" target="UaZMQa4N5eyTNxJowuL3-10">
          <mxGeometry relative="1" as="geometry" />
        </mxCell>
        <mxCell id="UaZMQa4N5eyTNxJowuL3-35" value="7&#39;6" style="edgeLabel;html=1;align=center;verticalAlign=middle;resizable=0;points=[];fontSize=12;" vertex="1" connectable="0" parent="UaZMQa4N5eyTNxJowuL3-34">
          <mxGeometry x="0.3025" y="-2" relative="1" as="geometry">
            <mxPoint as="offset" />
          </mxGeometry>
        </mxCell>
        <mxCell id="UaZMQa4N5eyTNxJowuL3-36" style="edgeStyle=none;curved=1;rounded=0;orthogonalLoop=1;jettySize=auto;html=1;exitX=0;exitY=1;exitDx=0;exitDy=0;fontSize=12;startSize=8;endSize=8;endArrow=none;endFill=0;" edge="1" parent="1" source="UaZMQa4N5eyTNxJowuL3-5" target="UaZMQa4N5eyTNxJowuL3-11">
          <mxGeometry relative="1" as="geometry" />
        </mxCell>
        <mxCell id="UaZMQa4N5eyTNxJowuL3-37" value="8" style="edgeLabel;html=1;align=center;verticalAlign=middle;resizable=0;points=[];fontSize=12;" vertex="1" connectable="0" parent="UaZMQa4N5eyTNxJowuL3-36">
          <mxGeometry x="0.1535" y="-4" relative="1" as="geometry">
            <mxPoint as="offset" />
          </mxGeometry>
        </mxCell>
        <mxCell id="UaZMQa4N5eyTNxJowuL3-5" value="Nico&lt;br&gt;Oleiros" style="ellipse;whiteSpace=wrap;html=1;aspect=fixed;" vertex="1" parent="1">
          <mxGeometry x="466" y="-1035" width="80" height="80" as="geometry" />
        </mxCell>
        <mxCell id="UaZMQa4N5eyTNxJowuL3-48" style="edgeStyle=none;curved=1;rounded=0;orthogonalLoop=1;jettySize=auto;html=1;exitX=0.5;exitY=0;exitDx=0;exitDy=0;entryX=0.5;entryY=1;entryDx=0;entryDy=0;fontSize=12;startSize=8;endSize=8;endArrow=none;endFill=0;" edge="1" parent="1" source="UaZMQa4N5eyTNxJowuL3-7" target="UaZMQa4N5eyTNxJowuL3-16">
          <mxGeometry relative="1" as="geometry" />
        </mxCell>
        <mxCell id="UaZMQa4N5eyTNxJowuL3-49" value="2" style="edgeLabel;html=1;align=center;verticalAlign=middle;resizable=0;points=[];fontSize=12;" vertex="1" connectable="0" parent="UaZMQa4N5eyTNxJowuL3-48">
          <mxGeometry x="0.1081" relative="1" as="geometry">
            <mxPoint as="offset" />
          </mxGeometry>
        </mxCell>
        <mxCell id="UaZMQa4N5eyTNxJowuL3-50" style="edgeStyle=none;curved=1;rounded=0;orthogonalLoop=1;jettySize=auto;html=1;exitX=1;exitY=0;exitDx=0;exitDy=0;fontSize=12;startSize=8;endSize=8;endArrow=none;endFill=0;" edge="1" parent="1" source="UaZMQa4N5eyTNxJowuL3-7" target="UaZMQa4N5eyTNxJowuL3-5">
          <mxGeometry relative="1" as="geometry" />
        </mxCell>
        <mxCell id="UaZMQa4N5eyTNxJowuL3-51" value="6.3" style="edgeLabel;html=1;align=center;verticalAlign=middle;resizable=0;points=[];fontSize=12;" vertex="1" connectable="0" parent="UaZMQa4N5eyTNxJowuL3-50">
          <mxGeometry x="-0.0018" relative="1" as="geometry">
            <mxPoint as="offset" />
          </mxGeometry>
        </mxCell>
        <mxCell id="UaZMQa4N5eyTNxJowuL3-7" value="Aeropuerto CoruÃ±a" style="ellipse;whiteSpace=wrap;html=1;aspect=fixed;" vertex="1" parent="1">
          <mxGeometry x="488" y="-695" width="80" height="80" as="geometry" />
        </mxCell>
        <mxCell id="UaZMQa4N5eyTNxJowuL3-40" style="edgeStyle=none;curved=1;rounded=0;orthogonalLoop=1;jettySize=auto;html=1;exitX=1;exitY=1;exitDx=0;exitDy=0;fontSize=12;startSize=8;endSize=8;endArrow=none;endFill=0;" edge="1" parent="1" source="UaZMQa4N5eyTNxJowuL3-10" target="UaZMQa4N5eyTNxJowuL3-16">
          <mxGeometry relative="1" as="geometry" />
        </mxCell>
        <mxCell id="UaZMQa4N5eyTNxJowuL3-41" value="4.9" style="edgeLabel;html=1;align=center;verticalAlign=middle;resizable=0;points=[];fontSize=12;" vertex="1" connectable="0" parent="UaZMQa4N5eyTNxJowuL3-40">
          <mxGeometry x="-0.0402" relative="1" as="geometry">
            <mxPoint as="offset" />
          </mxGeometry>
        </mxCell>
        <mxCell id="UaZMQa4N5eyTNxJowuL3-46" style="edgeStyle=none;curved=1;rounded=0;orthogonalLoop=1;jettySize=auto;html=1;exitX=1;exitY=1;exitDx=0;exitDy=0;fontSize=12;startSize=8;endSize=8;endArrow=none;endFill=0;" edge="1" parent="1" source="UaZMQa4N5eyTNxJowuL3-10" target="UaZMQa4N5eyTNxJowuL3-7">
          <mxGeometry relative="1" as="geometry" />
        </mxCell>
        <mxCell id="UaZMQa4N5eyTNxJowuL3-47" value="5.9" style="edgeLabel;html=1;align=center;verticalAlign=middle;resizable=0;points=[];fontSize=12;" vertex="1" connectable="0" parent="UaZMQa4N5eyTNxJowuL3-46">
          <mxGeometry x="0.0304" y="3" relative="1" as="geometry">
            <mxPoint x="1" as="offset" />
          </mxGeometry>
        </mxCell>
        <mxCell id="UaZMQa4N5eyTNxJowuL3-64" style="edgeStyle=none;curved=1;rounded=0;orthogonalLoop=1;jettySize=auto;html=1;exitX=0.5;exitY=1;exitDx=0;exitDy=0;entryX=0.5;entryY=0;entryDx=0;entryDy=0;fontSize=12;startSize=8;endSize=8;endArrow=none;endFill=0;" edge="1" parent="1" source="UaZMQa4N5eyTNxJowuL3-10" target="UaZMQa4N5eyTNxJowuL3-13">
          <mxGeometry relative="1" as="geometry" />
        </mxCell>
        <mxCell id="UaZMQa4N5eyTNxJowuL3-65" value="54.8" style="edgeLabel;html=1;align=center;verticalAlign=middle;resizable=0;points=[];fontSize=12;" vertex="1" connectable="0" parent="UaZMQa4N5eyTNxJowuL3-64">
          <mxGeometry x="0.0086" y="-2" relative="1" as="geometry">
            <mxPoint as="offset" />
          </mxGeometry>
        </mxCell>
        <mxCell id="UaZMQa4N5eyTNxJowuL3-10" value="Bus&lt;br&gt;CoruÃ±a" style="ellipse;whiteSpace=wrap;html=1;aspect=fixed;" vertex="1" parent="1">
          <mxGeometry x="75" y="-771" width="80" height="80" as="geometry" />
        </mxCell>
        <mxCell id="UaZMQa4N5eyTNxJowuL3-44" style="edgeStyle=none;curved=1;rounded=0;orthogonalLoop=1;jettySize=auto;html=1;exitX=1;exitY=1;exitDx=0;exitDy=0;fontSize=12;startSize=8;endSize=8;endArrow=none;endFill=0;" edge="1" parent="1" source="UaZMQa4N5eyTNxJowuL3-11" target="UaZMQa4N5eyTNxJowuL3-7">
          <mxGeometry relative="1" as="geometry" />
        </mxCell>
        <mxCell id="UaZMQa4N5eyTNxJowuL3-45" value="5.9" style="edgeLabel;html=1;align=center;verticalAlign=middle;resizable=0;points=[];fontSize=12;" vertex="1" connectable="0" parent="UaZMQa4N5eyTNxJowuL3-44">
          <mxGeometry x="-0.0127" y="-2" relative="1" as="geometry">
            <mxPoint as="offset" />
          </mxGeometry>
        </mxCell>
        <mxCell id="UaZMQa4N5eyTNxJowuL3-62" style="edgeStyle=none;curved=1;rounded=0;orthogonalLoop=1;jettySize=auto;html=1;exitX=0.5;exitY=1;exitDx=0;exitDy=0;fontSize=12;startSize=8;endSize=8;endArrow=none;endFill=0;" edge="1" parent="1" source="UaZMQa4N5eyTNxJowuL3-11" target="UaZMQa4N5eyTNxJowuL3-13">
          <mxGeometry relative="1" as="geometry" />
        </mxCell>
        <mxCell id="UaZMQa4N5eyTNxJowuL3-63" value="54.6" style="edgeLabel;html=1;align=center;verticalAlign=middle;resizable=0;points=[];fontSize=12;" vertex="1" connectable="0" parent="UaZMQa4N5eyTNxJowuL3-62">
          <mxGeometry x="0.1101" y="-1" relative="1" as="geometry">
            <mxPoint x="-1" as="offset" />
          </mxGeometry>
        </mxCell>
        <mxCell id="UaZMQa4N5eyTNxJowuL3-11" value="Tren&lt;br&gt;CoruÃ±a" style="ellipse;whiteSpace=wrap;html=1;aspect=fixed;" vertex="1" parent="1">
          <mxGeometry x="13" y="-684" width="80" height="80" as="geometry" />
        </mxCell>
        <mxCell id="UaZMQa4N5eyTNxJowuL3-66" style="edgeStyle=none;curved=1;rounded=0;orthogonalLoop=1;jettySize=auto;html=1;exitX=0.691;exitY=0.026;exitDx=0;exitDy=0;fontSize=12;startSize=8;endSize=8;exitPerimeter=0;endArrow=none;endFill=0;" edge="1" parent="1" source="UaZMQa4N5eyTNxJowuL3-13" target="UaZMQa4N5eyTNxJowuL3-5">
          <mxGeometry relative="1" as="geometry" />
        </mxCell>
        <mxCell id="UaZMQa4N5eyTNxJowuL3-67" value="54.6" style="edgeLabel;html=1;align=center;verticalAlign=middle;resizable=0;points=[];fontSize=12;" vertex="1" connectable="0" parent="UaZMQa4N5eyTNxJowuL3-66">
          <mxGeometry x="-0.6981" y="2" relative="1" as="geometry">
            <mxPoint y="-1" as="offset" />
          </mxGeometry>
        </mxCell>
        <mxCell id="UaZMQa4N5eyTNxJowuL3-68" style="edgeStyle=none;curved=1;rounded=0;orthogonalLoop=1;jettySize=auto;html=1;exitX=1;exitY=0.5;exitDx=0;exitDy=0;fontSize=12;startSize=8;endSize=8;endArrow=none;endFill=0;" edge="1" parent="1" source="UaZMQa4N5eyTNxJowuL3-13" target="UaZMQa4N5eyTNxJowuL3-16">
          <mxGeometry relative="1" as="geometry" />
        </mxCell>
        <mxCell id="UaZMQa4N5eyTNxJowuL3-69" value="51.7" style="edgeLabel;html=1;align=center;verticalAlign=middle;resizable=0;points=[];fontSize=12;" vertex="1" connectable="0" parent="UaZMQa4N5eyTNxJowuL3-68">
          <mxGeometry x="-0.6629" relative="1" as="geometry">
            <mxPoint as="offset" />
          </mxGeometry>
        </mxCell>
        <mxCell id="UaZMQa4N5eyTNxJowuL3-70" style="edgeStyle=none;curved=1;rounded=0;orthogonalLoop=1;jettySize=auto;html=1;exitX=1;exitY=0.5;exitDx=0;exitDy=0;fontSize=12;startSize=8;endSize=8;endArrow=none;endFill=0;" edge="1" parent="1" source="UaZMQa4N5eyTNxJowuL3-13" target="UaZMQa4N5eyTNxJowuL3-7">
          <mxGeometry relative="1" as="geometry" />
        </mxCell>
        <mxCell id="UaZMQa4N5eyTNxJowuL3-71" value="49.7" style="edgeLabel;html=1;align=center;verticalAlign=middle;resizable=0;points=[];fontSize=12;" vertex="1" connectable="0" parent="UaZMQa4N5eyTNxJowuL3-70">
          <mxGeometry x="-0.2504" relative="1" as="geometry">
            <mxPoint x="20" y="-27" as="offset" />
          </mxGeometry>
        </mxCell>
        <mxCell id="UaZMQa4N5eyTNxJowuL3-82" style="edgeStyle=none;curved=1;rounded=0;orthogonalLoop=1;jettySize=auto;html=1;exitX=1;exitY=0.5;exitDx=0;exitDy=0;fontSize=12;startSize=8;endSize=8;endArrow=none;endFill=0;" edge="1" parent="1" source="UaZMQa4N5eyTNxJowuL3-13" target="UaZMQa4N5eyTNxJowuL3-3">
          <mxGeometry relative="1" as="geometry" />
        </mxCell>
        <mxCell id="UaZMQa4N5eyTNxJowuL3-83" value="10.9" style="edgeLabel;html=1;align=center;verticalAlign=middle;resizable=0;points=[];fontSize=12;" vertex="1" connectable="0" parent="UaZMQa4N5eyTNxJowuL3-82">
          <mxGeometry x="-0.1218" relative="1" as="geometry">
            <mxPoint as="offset" />
          </mxGeometry>
        </mxCell>
        <mxCell id="UaZMQa4N5eyTNxJowuL3-133" style="edgeStyle=none;curved=1;rounded=0;orthogonalLoop=1;jettySize=auto;html=1;exitX=0;exitY=0.5;exitDx=0;exitDy=0;entryX=0;entryY=0.5;entryDx=0;entryDy=0;fontSize=12;startSize=8;endSize=8;endArrow=none;endFill=0;" edge="1" parent="1" source="UaZMQa4N5eyTNxJowuL3-13" target="UaZMQa4N5eyTNxJowuL3-122">
          <mxGeometry relative="1" as="geometry">
            <Array as="points">
              <mxPoint x="-278" y="-784" />
            </Array>
          </mxGeometry>
        </mxCell>
        <mxCell id="UaZMQa4N5eyTNxJowuL3-134" value="58.8" style="edgeLabel;html=1;align=center;verticalAlign=middle;resizable=0;points=[];fontSize=12;" vertex="1" connectable="0" parent="UaZMQa4N5eyTNxJowuL3-133">
          <mxGeometry x="0.2492" y="-92" relative="1" as="geometry">
            <mxPoint as="offset" />
          </mxGeometry>
        </mxCell>
        <mxCell id="UaZMQa4N5eyTNxJowuL3-13" value="Bus/Tren&lt;br&gt;Santiago" style="ellipse;whiteSpace=wrap;html=1;aspect=fixed;" vertex="1" parent="1">
          <mxGeometry x="116" y="-390" width="80" height="80" as="geometry" />
        </mxCell>
        <mxCell id="UaZMQa4N5eyTNxJowuL3-16" value="Tren&lt;br&gt;O Burgo" style="ellipse;whiteSpace=wrap;html=1;aspect=fixed;" vertex="1" parent="1">
          <mxGeometry x="400" y="-829" width="80" height="80" as="geometry" />
        </mxCell>
        <mxCell id="UaZMQa4N5eyTNxJowuL3-84" style="edgeStyle=none;curved=1;rounded=0;orthogonalLoop=1;jettySize=auto;html=1;exitX=0;exitY=1;exitDx=0;exitDy=0;entryX=1;entryY=0.5;entryDx=0;entryDy=0;fontSize=12;startSize=8;endSize=8;endArrow=none;endFill=0;" edge="1" parent="1" source="UaZMQa4N5eyTNxJowuL3-20" target="UaZMQa4N5eyTNxJowuL3-3">
          <mxGeometry relative="1" as="geometry" />
        </mxCell>
        <mxCell id="UaZMQa4N5eyTNxJowuL3-85" value="70.3" style="edgeLabel;html=1;align=center;verticalAlign=middle;resizable=0;points=[];fontSize=12;" vertex="1" connectable="0" parent="UaZMQa4N5eyTNxJowuL3-84">
          <mxGeometry x="-0.0086" y="2" relative="1" as="geometry">
            <mxPoint as="offset" />
          </mxGeometry>
        </mxCell>
        <mxCell id="UaZMQa4N5eyTNxJowuL3-20" value="Bus&lt;br&gt;Lugo" style="ellipse;whiteSpace=wrap;html=1;aspect=fixed;" vertex="1" parent="1">
          <mxGeometry x="788" y="-527" width="80" height="80" as="geometry" />
        </mxCell>
        <mxCell id="UaZMQa4N5eyTNxJowuL3-38" style="edgeStyle=none;curved=1;rounded=0;orthogonalLoop=1;jettySize=auto;html=1;exitX=1;exitY=0;exitDx=0;exitDy=0;entryX=0.038;entryY=0.702;entryDx=0;entryDy=0;entryPerimeter=0;fontSize=12;startSize=8;endSize=8;endArrow=none;endFill=0;" edge="1" parent="1" source="UaZMQa4N5eyTNxJowuL3-11" target="UaZMQa4N5eyTNxJowuL3-10">
          <mxGeometry relative="1" as="geometry" />
        </mxCell>
        <mxCell id="UaZMQa4N5eyTNxJowuL3-39" value="0.4" style="edgeLabel;html=1;align=center;verticalAlign=middle;resizable=0;points=[];fontSize=12;" vertex="1" connectable="0" parent="UaZMQa4N5eyTNxJowuL3-38">
          <mxGeometry x="-0.006" relative="1" as="geometry">
            <mxPoint as="offset" />
          </mxGeometry>
        </mxCell>
        <mxCell id="UaZMQa4N5eyTNxJowuL3-42" style="edgeStyle=none;curved=1;rounded=0;orthogonalLoop=1;jettySize=auto;html=1;exitX=1;exitY=0.5;exitDx=0;exitDy=0;fontSize=12;startSize=8;endSize=8;endArrow=none;endFill=0;" edge="1" parent="1" source="UaZMQa4N5eyTNxJowuL3-11" target="UaZMQa4N5eyTNxJowuL3-16">
          <mxGeometry relative="1" as="geometry">
            <mxPoint x="79.2642712474619" y="-618.9957287525381" as="sourcePoint" />
            <mxPoint x="240.73999999999998" y="-596.76" as="targetPoint" />
          </mxGeometry>
        </mxCell>
        <mxCell id="UaZMQa4N5eyTNxJowuL3-43" value="5" style="edgeLabel;html=1;align=center;verticalAlign=middle;resizable=0;points=[];fontSize=12;" vertex="1" connectable="0" parent="UaZMQa4N5eyTNxJowuL3-42">
          <mxGeometry x="-0.0373" y="-2" relative="1" as="geometry">
            <mxPoint as="offset" />
          </mxGeometry>
        </mxCell>
        <mxCell id="UaZMQa4N5eyTNxJowuL3-139" style="edgeStyle=none;curved=1;rounded=0;orthogonalLoop=1;jettySize=auto;html=1;exitX=0.5;exitY=0;exitDx=0;exitDy=0;entryX=0.5;entryY=1;entryDx=0;entryDy=0;fontSize=12;startSize=8;endSize=8;endArrow=none;endFill=0;" edge="1" parent="1" source="UaZMQa4N5eyTNxJowuL3-121" target="UaZMQa4N5eyTNxJowuL3-7">
          <mxGeometry relative="1" as="geometry" />
        </mxCell>
        <mxCell id="UaZMQa4N5eyTNxJowuL3-140" value="1.8" style="edgeLabel;html=1;align=center;verticalAlign=middle;resizable=0;points=[];fontSize=12;" vertex="1" connectable="0" parent="UaZMQa4N5eyTNxJowuL3-139">
          <mxGeometry x="-0.0036" relative="1" as="geometry">
            <mxPoint as="offset" />
          </mxGeometry>
        </mxCell>
        <mxCell id="UaZMQa4N5eyTNxJowuL3-141" style="edgeStyle=none;curved=1;rounded=0;orthogonalLoop=1;jettySize=auto;html=1;exitX=0;exitY=0.5;exitDx=0;exitDy=0;fontSize=12;startSize=8;endSize=8;endArrow=none;endFill=0;" edge="1" parent="1" source="UaZMQa4N5eyTNxJowuL3-121" target="UaZMQa4N5eyTNxJowuL3-11">
          <mxGeometry relative="1" as="geometry" />
        </mxCell>
        <mxCell id="UaZMQa4N5eyTNxJowuL3-142" value="7.3" style="edgeLabel;html=1;align=center;verticalAlign=middle;resizable=0;points=[];fontSize=12;" vertex="1" connectable="0" parent="UaZMQa4N5eyTNxJowuL3-141">
          <mxGeometry x="-0.0255" y="-1" relative="1" as="geometry">
            <mxPoint as="offset" />
          </mxGeometry>
        </mxCell>
        <mxCell id="UaZMQa4N5eyTNxJowuL3-143" style="edgeStyle=none;curved=1;rounded=0;orthogonalLoop=1;jettySize=auto;html=1;exitX=0;exitY=0;exitDx=0;exitDy=0;fontSize=12;startSize=8;endSize=8;endArrow=none;endFill=0;" edge="1" parent="1" source="UaZMQa4N5eyTNxJowuL3-121" target="UaZMQa4N5eyTNxJowuL3-10">
          <mxGeometry relative="1" as="geometry" />
        </mxCell>
        <mxCell id="UaZMQa4N5eyTNxJowuL3-144" value="7.5" style="edgeLabel;html=1;align=center;verticalAlign=middle;resizable=0;points=[];fontSize=12;" vertex="1" connectable="0" parent="UaZMQa4N5eyTNxJowuL3-143">
          <mxGeometry x="0.2172" y="2" relative="1" as="geometry">
            <mxPoint as="offset" />
          </mxGeometry>
        </mxCell>
        <mxCell id="UaZMQa4N5eyTNxJowuL3-121" value="Rober&lt;br&gt;Culleredo" style="ellipse;whiteSpace=wrap;html=1;aspect=fixed;" vertex="1" parent="1">
          <mxGeometry x="491" y="-586" width="80" height="80" as="geometry" />
        </mxCell>
        <mxCell id="UaZMQa4N5eyTNxJowuL3-125" style="edgeStyle=none;curved=1;rounded=0;orthogonalLoop=1;jettySize=auto;html=1;exitX=0;exitY=1;exitDx=0;exitDy=0;entryX=1;entryY=0;entryDx=0;entryDy=0;fontSize=12;startSize=8;endSize=8;endArrow=none;endFill=0;" edge="1" parent="1" source="UaZMQa4N5eyTNxJowuL3-122" target="UaZMQa4N5eyTNxJowuL3-5">
          <mxGeometry relative="1" as="geometry" />
        </mxCell>
        <mxCell id="UaZMQa4N5eyTNxJowuL3-126" value="5.3" style="edgeLabel;html=1;align=center;verticalAlign=middle;resizable=0;points=[];fontSize=12;" vertex="1" connectable="0" parent="UaZMQa4N5eyTNxJowuL3-125">
          <mxGeometry x="0.0491" y="-6" relative="1" as="geometry">
            <mxPoint x="-1" as="offset" />
          </mxGeometry>
        </mxCell>
        <mxCell id="UaZMQa4N5eyTNxJowuL3-127" style="edgeStyle=none;curved=1;rounded=0;orthogonalLoop=1;jettySize=auto;html=1;exitX=0;exitY=1;exitDx=0;exitDy=0;entryX=1;entryY=0;entryDx=0;entryDy=0;fontSize=12;startSize=8;endSize=8;endArrow=none;endFill=0;" edge="1" parent="1" source="UaZMQa4N5eyTNxJowuL3-122" target="UaZMQa4N5eyTNxJowuL3-16">
          <mxGeometry relative="1" as="geometry" />
        </mxCell>
        <mxCell id="UaZMQa4N5eyTNxJowuL3-128" value="9.9" style="edgeLabel;html=1;align=center;verticalAlign=middle;resizable=0;points=[];fontSize=12;" vertex="1" connectable="0" parent="UaZMQa4N5eyTNxJowuL3-127">
          <mxGeometry x="0.0208" relative="1" as="geometry">
            <mxPoint x="-1" as="offset" />
          </mxGeometry>
        </mxCell>
        <mxCell id="UaZMQa4N5eyTNxJowuL3-131" style="edgeStyle=none;curved=1;rounded=0;orthogonalLoop=1;jettySize=auto;html=1;exitX=1;exitY=1;exitDx=0;exitDy=0;entryX=1;entryY=0.5;entryDx=0;entryDy=0;fontSize=12;startSize=8;endSize=8;endArrow=none;endFill=0;" edge="1" parent="1" source="UaZMQa4N5eyTNxJowuL3-122" target="UaZMQa4N5eyTNxJowuL3-3">
          <mxGeometry relative="1" as="geometry">
            <Array as="points">
              <mxPoint x="825" y="-549" />
            </Array>
          </mxGeometry>
        </mxCell>
        <mxCell id="UaZMQa4N5eyTNxJowuL3-132" value="53" style="edgeLabel;html=1;align=center;verticalAlign=middle;resizable=0;points=[];fontSize=12;" vertex="1" connectable="0" parent="UaZMQa4N5eyTNxJowuL3-131">
          <mxGeometry x="-0.2915" y="-107" relative="1" as="geometry">
            <mxPoint x="-1" y="-1" as="offset" />
          </mxGeometry>
        </mxCell>
        <mxCell id="UaZMQa4N5eyTNxJowuL3-122" value="InÃ©s&lt;br&gt;Sada" style="ellipse;whiteSpace=wrap;html=1;aspect=fixed;" vertex="1" parent="1">
          <mxGeometry x="587" y="-1128" width="80" height="80" as="geometry" />
        </mxCell>
        <mxCell id="UaZMQa4N5eyTNxJowuL3-135" style="edgeStyle=none;curved=1;rounded=0;orthogonalLoop=1;jettySize=auto;html=1;exitX=1;exitY=0.5;exitDx=0;exitDy=0;fontSize=12;startSize=8;endSize=8;endArrow=none;endFill=0;" edge="1" parent="1" source="UaZMQa4N5eyTNxJowuL3-124" target="UaZMQa4N5eyTNxJowuL3-13">
          <mxGeometry relative="1" as="geometry" />
        </mxCell>
        <mxCell id="UaZMQa4N5eyTNxJowuL3-136" value="1.3" style="edgeLabel;html=1;align=center;verticalAlign=middle;resizable=0;points=[];fontSize=12;" vertex="1" connectable="0" parent="UaZMQa4N5eyTNxJowuL3-135">
          <mxGeometry x="-0.1969" y="-4" relative="1" as="geometry">
            <mxPoint x="-1" as="offset" />
          </mxGeometry>
        </mxCell>
        <mxCell id="UaZMQa4N5eyTNxJowuL3-137" style="edgeStyle=none;curved=1;rounded=0;orthogonalLoop=1;jettySize=auto;html=1;exitX=1;exitY=1;exitDx=0;exitDy=0;entryX=0;entryY=1;entryDx=0;entryDy=0;fontSize=12;startSize=8;endSize=8;endArrow=none;endFill=0;" edge="1" parent="1" source="UaZMQa4N5eyTNxJowuL3-124" target="UaZMQa4N5eyTNxJowuL3-3">
          <mxGeometry relative="1" as="geometry">
            <Array as="points">
              <mxPoint x="146" y="-260" />
            </Array>
          </mxGeometry>
        </mxCell>
        <mxCell id="UaZMQa4N5eyTNxJowuL3-138" value="11.7" style="edgeLabel;html=1;align=center;verticalAlign=middle;resizable=0;points=[];fontSize=12;" vertex="1" connectable="0" parent="UaZMQa4N5eyTNxJowuL3-137">
          <mxGeometry x="-0.2031" y="24" relative="1" as="geometry">
            <mxPoint as="offset" />
          </mxGeometry>
        </mxCell>
        <mxCell id="UaZMQa4N5eyTNxJowuL3-124" value="Elena&lt;br&gt;Santiago" style="ellipse;whiteSpace=wrap;html=1;aspect=fixed;" vertex="1" parent="1">
          <mxGeometry x="-16" y="-385" width="80" height="80" as="geometry" />
        </mxCell>
        <mxCell id="UaZMQa4N5eyTNxJowuL3-129" style="edgeStyle=none;curved=1;rounded=0;orthogonalLoop=1;jettySize=auto;html=1;exitX=0.5;exitY=1;exitDx=0;exitDy=0;entryX=0.705;entryY=0.068;entryDx=0;entryDy=0;entryPerimeter=0;fontSize=12;startSize=8;endSize=8;endArrow=none;endFill=0;" edge="1" parent="1" source="UaZMQa4N5eyTNxJowuL3-122" target="UaZMQa4N5eyTNxJowuL3-7">
          <mxGeometry relative="1" as="geometry" />
        </mxCell>
        <mxCell id="UaZMQa4N5eyTNxJowuL3-130" value="11.7" style="edgeLabel;html=1;align=center;verticalAlign=middle;resizable=0;points=[];fontSize=12;" vertex="1" connectable="0" parent="UaZMQa4N5eyTNxJowuL3-129">
          <mxGeometry x="-0.0317" relative="1" as="geometry">
            <mxPoint as="offset" />
          </mxGeometry>
        </mxCell>
        <mxCell id="UaZMQa4N5eyTNxJowuL3-147" style="edgeStyle=none;curved=1;rounded=0;orthogonalLoop=1;jettySize=auto;html=1;exitX=1;exitY=0;exitDx=0;exitDy=0;entryX=0.064;entryY=0.687;entryDx=0;entryDy=0;entryPerimeter=0;fontSize=12;startSize=8;endSize=8;endArrow=none;endFill=0;" edge="1" parent="1" source="UaZMQa4N5eyTNxJowuL3-13" target="UaZMQa4N5eyTNxJowuL3-121">
          <mxGeometry relative="1" as="geometry" />
        </mxCell>
        <mxCell id="UaZMQa4N5eyTNxJowuL3-148" value="48" style="edgeLabel;html=1;align=center;verticalAlign=middle;resizable=0;points=[];fontSize=12;" vertex="1" connectable="0" parent="UaZMQa4N5eyTNxJowuL3-147">
          <mxGeometry x="0.0638" y="-2" relative="1" as="geometry">
            <mxPoint as="offset" />
          </mxGeometry>
        </mxCell>
      </root>
    </mxGraphModel>
  </diagram>
  <diagram id="e1GMKj7If5qEXI2L7eqb" name="PÃ¡gina-2">
    <mxGraphModel dx="1628" dy="2085" grid="0" gridSize="10" guides="1" tooltips="1" connect="1" arrows="1" fold="1" page="0" pageScale="1" pageWidth="827" pageHeight="1169" math="0" shadow="0">
      <root>
        <mxCell id="0" />
        <mxCell id="1" parent="0" />
        <mxCell id="Xu9SeJX0aQOKgPznrCXN-2" style="edgeStyle=none;curved=1;rounded=0;orthogonalLoop=1;jettySize=auto;html=1;exitX=1;exitY=0;exitDx=0;exitDy=0;fontSize=12;startSize=8;endSize=8;endArrow=none;endFill=0;" edge="1" parent="1">
          <mxGeometry relative="1" as="geometry">
            <Array as="points">
              <mxPoint x="509.72" y="-558" />
            </Array>
            <mxPoint x="328.00427124746216" y="-368.28427124746213" as="sourcePoint" />
            <mxPoint x="517.1023130424567" y="-950.0047694990885" as="targetPoint" />
          </mxGeometry>
        </mxCell>
        <mxCell id="Xu9SeJX0aQOKgPznrCXN-3" value="49.3" style="edgeLabel;html=1;align=center;verticalAlign=middle;resizable=0;points=[];fontSize=12;" vertex="1" connectable="0" parent="Xu9SeJX0aQOKgPznrCXN-2">
          <mxGeometry x="-0.4994" y="-3" relative="1" as="geometry">
            <mxPoint x="-26" y="4" as="offset" />
          </mxGeometry>
        </mxCell>
        <mxCell id="Xu9SeJX0aQOKgPznrCXN-4" style="edgeStyle=none;curved=1;rounded=0;orthogonalLoop=1;jettySize=auto;html=1;exitX=0.5;exitY=0;exitDx=0;exitDy=0;fontSize=12;startSize=8;endSize=8;entryX=0.5;entryY=1;entryDx=0;entryDy=0;endArrow=none;endFill=0;" edge="1" parent="1" source="Xu9SeJX0aQOKgPznrCXN-16" target="Xu9SeJX0aQOKgPznrCXN-51">
          <mxGeometry relative="1" as="geometry">
            <mxPoint x="317.6595318134014" y="-651.5055272028997" as="targetPoint" />
          </mxGeometry>
        </mxCell>
        <mxCell id="Xu9SeJX0aQOKgPznrCXN-5" value="47" style="edgeLabel;html=1;align=center;verticalAlign=middle;resizable=0;points=[];fontSize=12;" vertex="1" connectable="0" parent="Xu9SeJX0aQOKgPznrCXN-4">
          <mxGeometry x="-0.0178" y="2" relative="1" as="geometry">
            <mxPoint y="-1" as="offset" />
          </mxGeometry>
        </mxCell>
        <mxCell id="Xu9SeJX0aQOKgPznrCXN-6" style="edgeStyle=none;curved=1;rounded=0;orthogonalLoop=1;jettySize=auto;html=1;exitX=1;exitY=0;exitDx=0;exitDy=0;fontSize=12;startSize=8;endSize=8;endArrow=none;endFill=0;" edge="1" parent="1" source="Xu9SeJX0aQOKgPznrCXN-16" target="Xu9SeJX0aQOKgPznrCXN-28">
          <mxGeometry relative="1" as="geometry" />
        </mxCell>
        <mxCell id="Xu9SeJX0aQOKgPznrCXN-7" value="45.4" style="edgeLabel;html=1;align=center;verticalAlign=middle;resizable=0;points=[];fontSize=12;" vertex="1" connectable="0" parent="Xu9SeJX0aQOKgPznrCXN-6">
          <mxGeometry x="0.0714" y="-1" relative="1" as="geometry">
            <mxPoint as="offset" />
          </mxGeometry>
        </mxCell>
        <mxCell id="Xu9SeJX0aQOKgPznrCXN-8" style="edgeStyle=none;curved=1;rounded=0;orthogonalLoop=1;jettySize=auto;html=1;exitX=0;exitY=0;exitDx=0;exitDy=0;fontSize=12;startSize=8;endSize=8;endArrow=none;endFill=0;" edge="1" parent="1" source="Xu9SeJX0aQOKgPznrCXN-16" target="Xu9SeJX0aQOKgPznrCXN-35">
          <mxGeometry relative="1" as="geometry" />
        </mxCell>
        <mxCell id="Xu9SeJX0aQOKgPznrCXN-9" value="51" style="edgeLabel;html=1;align=center;verticalAlign=middle;resizable=0;points=[];fontSize=12;" vertex="1" connectable="0" parent="Xu9SeJX0aQOKgPznrCXN-8">
          <mxGeometry x="0.0059" y="-1" relative="1" as="geometry">
            <mxPoint y="1" as="offset" />
          </mxGeometry>
        </mxCell>
        <mxCell id="Xu9SeJX0aQOKgPznrCXN-10" style="edgeStyle=none;curved=1;rounded=0;orthogonalLoop=1;jettySize=auto;html=1;exitX=0;exitY=0.5;exitDx=0;exitDy=0;fontSize=12;startSize=8;endSize=8;endArrow=none;endFill=0;" edge="1" parent="1" source="Xu9SeJX0aQOKgPznrCXN-16" target="Xu9SeJX0aQOKgPznrCXN-40">
          <mxGeometry relative="1" as="geometry" />
        </mxCell>
        <mxCell id="Xu9SeJX0aQOKgPznrCXN-11" value="50.9" style="edgeLabel;html=1;align=center;verticalAlign=middle;resizable=0;points=[];fontSize=12;" vertex="1" connectable="0" parent="Xu9SeJX0aQOKgPznrCXN-10">
          <mxGeometry x="-0.0735" y="1" relative="1" as="geometry">
            <mxPoint as="offset" />
          </mxGeometry>
        </mxCell>
        <mxCell id="Xu9SeJX0aQOKgPznrCXN-16" value="Santiago Aeropuerto" style="ellipse;whiteSpace=wrap;html=1;aspect=fixed;" vertex="1" parent="1">
          <mxGeometry x="248" y="-385" width="80" height="80" as="geometry" />
        </mxCell>
        <mxCell id="Xu9SeJX0aQOKgPznrCXN-17" style="edgeStyle=none;curved=1;rounded=0;orthogonalLoop=1;jettySize=auto;html=1;exitX=0;exitY=0.5;exitDx=0;exitDy=0;fontSize=12;startSize=8;endSize=8;endArrow=none;endFill=0;" edge="1" parent="1" source="Xu9SeJX0aQOKgPznrCXN-23" target="Xu9SeJX0aQOKgPznrCXN-51">
          <mxGeometry relative="1" as="geometry" />
        </mxCell>
        <mxCell id="Xu9SeJX0aQOKgPznrCXN-18" value="4.6" style="edgeLabel;html=1;align=center;verticalAlign=middle;resizable=0;points=[];fontSize=12;" vertex="1" connectable="0" parent="Xu9SeJX0aQOKgPznrCXN-17">
          <mxGeometry x="0.0738" y="3" relative="1" as="geometry">
            <mxPoint as="offset" />
          </mxGeometry>
        </mxCell>
        <mxCell id="Xu9SeJX0aQOKgPznrCXN-19" style="edgeStyle=none;curved=1;rounded=0;orthogonalLoop=1;jettySize=auto;html=1;exitX=0;exitY=0;exitDx=0;exitDy=0;fontSize=12;startSize=8;endSize=8;endArrow=none;endFill=0;" edge="1" parent="1" source="Xu9SeJX0aQOKgPznrCXN-23" target="Xu9SeJX0aQOKgPznrCXN-35">
          <mxGeometry relative="1" as="geometry" />
        </mxCell>
        <mxCell id="Xu9SeJX0aQOKgPznrCXN-20" value="7&#39;6" style="edgeLabel;html=1;align=center;verticalAlign=middle;resizable=0;points=[];fontSize=12;" vertex="1" connectable="0" parent="Xu9SeJX0aQOKgPznrCXN-19">
          <mxGeometry x="0.3025" y="-2" relative="1" as="geometry">
            <mxPoint as="offset" />
          </mxGeometry>
        </mxCell>
        <mxCell id="Xu9SeJX0aQOKgPznrCXN-21" style="edgeStyle=none;curved=1;rounded=0;orthogonalLoop=1;jettySize=auto;html=1;exitX=0;exitY=1;exitDx=0;exitDy=0;fontSize=12;startSize=8;endSize=8;endArrow=none;endFill=0;" edge="1" parent="1" source="Xu9SeJX0aQOKgPznrCXN-23" target="Xu9SeJX0aQOKgPznrCXN-40">
          <mxGeometry relative="1" as="geometry" />
        </mxCell>
        <mxCell id="Xu9SeJX0aQOKgPznrCXN-22" value="8" style="edgeLabel;html=1;align=center;verticalAlign=middle;resizable=0;points=[];fontSize=12;" vertex="1" connectable="0" parent="Xu9SeJX0aQOKgPznrCXN-21">
          <mxGeometry x="0.1535" y="-4" relative="1" as="geometry">
            <mxPoint as="offset" />
          </mxGeometry>
        </mxCell>
        <mxCell id="Xu9SeJX0aQOKgPznrCXN-23" value="Rober&lt;br&gt;Oleiros" style="ellipse;whiteSpace=wrap;html=1;aspect=fixed;" vertex="1" parent="1">
          <mxGeometry x="466" y="-1035" width="80" height="80" as="geometry" />
        </mxCell>
        <mxCell id="Xu9SeJX0aQOKgPznrCXN-24" style="edgeStyle=none;curved=1;rounded=0;orthogonalLoop=1;jettySize=auto;html=1;exitX=0.5;exitY=0;exitDx=0;exitDy=0;entryX=0.5;entryY=1;entryDx=0;entryDy=0;fontSize=12;startSize=8;endSize=8;endArrow=none;endFill=0;" edge="1" parent="1" source="Xu9SeJX0aQOKgPznrCXN-28" target="Xu9SeJX0aQOKgPznrCXN-51">
          <mxGeometry relative="1" as="geometry" />
        </mxCell>
        <mxCell id="Xu9SeJX0aQOKgPznrCXN-25" value="2" style="edgeLabel;html=1;align=center;verticalAlign=middle;resizable=0;points=[];fontSize=12;" vertex="1" connectable="0" parent="Xu9SeJX0aQOKgPznrCXN-24">
          <mxGeometry x="0.1081" relative="1" as="geometry">
            <mxPoint as="offset" />
          </mxGeometry>
        </mxCell>
        <mxCell id="Xu9SeJX0aQOKgPznrCXN-26" style="edgeStyle=none;curved=1;rounded=0;orthogonalLoop=1;jettySize=auto;html=1;exitX=1;exitY=0;exitDx=0;exitDy=0;fontSize=12;startSize=8;endSize=8;endArrow=none;endFill=0;" edge="1" parent="1" source="Xu9SeJX0aQOKgPznrCXN-28" target="Xu9SeJX0aQOKgPznrCXN-23">
          <mxGeometry relative="1" as="geometry" />
        </mxCell>
        <mxCell id="Xu9SeJX0aQOKgPznrCXN-27" value="6.3" style="edgeLabel;html=1;align=center;verticalAlign=middle;resizable=0;points=[];fontSize=12;" vertex="1" connectable="0" parent="Xu9SeJX0aQOKgPznrCXN-26">
          <mxGeometry x="-0.0018" relative="1" as="geometry">
            <mxPoint as="offset" />
          </mxGeometry>
        </mxCell>
        <mxCell id="Xu9SeJX0aQOKgPznrCXN-28" value="Aeropuerto CoruÃ±a" style="ellipse;whiteSpace=wrap;html=1;aspect=fixed;" vertex="1" parent="1">
          <mxGeometry x="488" y="-695" width="80" height="80" as="geometry" />
        </mxCell>
        <mxCell id="Xu9SeJX0aQOKgPznrCXN-29" style="edgeStyle=none;curved=1;rounded=0;orthogonalLoop=1;jettySize=auto;html=1;exitX=1;exitY=1;exitDx=0;exitDy=0;fontSize=12;startSize=8;endSize=8;endArrow=none;endFill=0;" edge="1" parent="1" source="Xu9SeJX0aQOKgPznrCXN-35" target="Xu9SeJX0aQOKgPznrCXN-51">
          <mxGeometry relative="1" as="geometry" />
        </mxCell>
        <mxCell id="Xu9SeJX0aQOKgPznrCXN-30" value="4.9" style="edgeLabel;html=1;align=center;verticalAlign=middle;resizable=0;points=[];fontSize=12;" vertex="1" connectable="0" parent="Xu9SeJX0aQOKgPznrCXN-29">
          <mxGeometry x="-0.0402" relative="1" as="geometry">
            <mxPoint as="offset" />
          </mxGeometry>
        </mxCell>
        <mxCell id="Xu9SeJX0aQOKgPznrCXN-31" style="edgeStyle=none;curved=1;rounded=0;orthogonalLoop=1;jettySize=auto;html=1;exitX=1;exitY=1;exitDx=0;exitDy=0;fontSize=12;startSize=8;endSize=8;endArrow=none;endFill=0;" edge="1" parent="1" source="Xu9SeJX0aQOKgPznrCXN-35" target="Xu9SeJX0aQOKgPznrCXN-28">
          <mxGeometry relative="1" as="geometry" />
        </mxCell>
        <mxCell id="Xu9SeJX0aQOKgPznrCXN-32" value="5.9" style="edgeLabel;html=1;align=center;verticalAlign=middle;resizable=0;points=[];fontSize=12;" vertex="1" connectable="0" parent="Xu9SeJX0aQOKgPznrCXN-31">
          <mxGeometry x="0.0304" y="3" relative="1" as="geometry">
            <mxPoint x="1" as="offset" />
          </mxGeometry>
        </mxCell>
        <mxCell id="Xu9SeJX0aQOKgPznrCXN-33" style="edgeStyle=none;curved=1;rounded=0;orthogonalLoop=1;jettySize=auto;html=1;exitX=0.5;exitY=1;exitDx=0;exitDy=0;entryX=0.5;entryY=0;entryDx=0;entryDy=0;fontSize=12;startSize=8;endSize=8;endArrow=none;endFill=0;" edge="1" parent="1" source="Xu9SeJX0aQOKgPznrCXN-35" target="Xu9SeJX0aQOKgPznrCXN-50">
          <mxGeometry relative="1" as="geometry" />
        </mxCell>
        <mxCell id="Xu9SeJX0aQOKgPznrCXN-34" value="54.8" style="edgeLabel;html=1;align=center;verticalAlign=middle;resizable=0;points=[];fontSize=12;" vertex="1" connectable="0" parent="Xu9SeJX0aQOKgPznrCXN-33">
          <mxGeometry x="0.0086" y="-2" relative="1" as="geometry">
            <mxPoint as="offset" />
          </mxGeometry>
        </mxCell>
        <mxCell id="Xu9SeJX0aQOKgPznrCXN-35" value="Bus&lt;br&gt;CoruÃ±a" style="ellipse;whiteSpace=wrap;html=1;aspect=fixed;" vertex="1" parent="1">
          <mxGeometry x="75" y="-771" width="80" height="80" as="geometry" />
        </mxCell>
        <mxCell id="Xu9SeJX0aQOKgPznrCXN-36" style="edgeStyle=none;curved=1;rounded=0;orthogonalLoop=1;jettySize=auto;html=1;exitX=1;exitY=1;exitDx=0;exitDy=0;fontSize=12;startSize=8;endSize=8;endArrow=none;endFill=0;" edge="1" parent="1" source="Xu9SeJX0aQOKgPznrCXN-40" target="Xu9SeJX0aQOKgPznrCXN-28">
          <mxGeometry relative="1" as="geometry" />
        </mxCell>
        <mxCell id="Xu9SeJX0aQOKgPznrCXN-37" value="5.9" style="edgeLabel;html=1;align=center;verticalAlign=middle;resizable=0;points=[];fontSize=12;" vertex="1" connectable="0" parent="Xu9SeJX0aQOKgPznrCXN-36">
          <mxGeometry x="-0.0127" y="-2" relative="1" as="geometry">
            <mxPoint as="offset" />
          </mxGeometry>
        </mxCell>
        <mxCell id="Xu9SeJX0aQOKgPznrCXN-38" style="edgeStyle=none;curved=1;rounded=0;orthogonalLoop=1;jettySize=auto;html=1;exitX=0.5;exitY=1;exitDx=0;exitDy=0;fontSize=12;startSize=8;endSize=8;endArrow=none;endFill=0;" edge="1" parent="1" source="Xu9SeJX0aQOKgPznrCXN-40" target="Xu9SeJX0aQOKgPznrCXN-50">
          <mxGeometry relative="1" as="geometry" />
        </mxCell>
        <mxCell id="Xu9SeJX0aQOKgPznrCXN-39" value="54.6" style="edgeLabel;html=1;align=center;verticalAlign=middle;resizable=0;points=[];fontSize=12;" vertex="1" connectable="0" parent="Xu9SeJX0aQOKgPznrCXN-38">
          <mxGeometry x="0.1101" y="-1" relative="1" as="geometry">
            <mxPoint x="-1" as="offset" />
          </mxGeometry>
        </mxCell>
        <mxCell id="Xu9SeJX0aQOKgPznrCXN-40" value="Tren&lt;br&gt;CoruÃ±a" style="ellipse;whiteSpace=wrap;html=1;aspect=fixed;" vertex="1" parent="1">
          <mxGeometry x="13" y="-684" width="80" height="80" as="geometry" />
        </mxCell>
        <mxCell id="Xu9SeJX0aQOKgPznrCXN-41" style="edgeStyle=none;curved=1;rounded=0;orthogonalLoop=1;jettySize=auto;html=1;exitX=0.691;exitY=0.026;exitDx=0;exitDy=0;fontSize=12;startSize=8;endSize=8;exitPerimeter=0;endArrow=none;endFill=0;" edge="1" parent="1" source="Xu9SeJX0aQOKgPznrCXN-50" target="Xu9SeJX0aQOKgPznrCXN-23">
          <mxGeometry relative="1" as="geometry" />
        </mxCell>
        <mxCell id="Xu9SeJX0aQOKgPznrCXN-42" value="54.6" style="edgeLabel;html=1;align=center;verticalAlign=middle;resizable=0;points=[];fontSize=12;" vertex="1" connectable="0" parent="Xu9SeJX0aQOKgPznrCXN-41">
          <mxGeometry x="-0.6981" y="2" relative="1" as="geometry">
            <mxPoint y="-1" as="offset" />
          </mxGeometry>
        </mxCell>
        <mxCell id="Xu9SeJX0aQOKgPznrCXN-43" style="edgeStyle=none;curved=1;rounded=0;orthogonalLoop=1;jettySize=auto;html=1;exitX=1;exitY=0.5;exitDx=0;exitDy=0;fontSize=12;startSize=8;endSize=8;endArrow=none;endFill=0;" edge="1" parent="1" source="Xu9SeJX0aQOKgPznrCXN-50" target="Xu9SeJX0aQOKgPznrCXN-51">
          <mxGeometry relative="1" as="geometry" />
        </mxCell>
        <mxCell id="Xu9SeJX0aQOKgPznrCXN-44" value="51.7" style="edgeLabel;html=1;align=center;verticalAlign=middle;resizable=0;points=[];fontSize=12;" vertex="1" connectable="0" parent="Xu9SeJX0aQOKgPznrCXN-43">
          <mxGeometry x="-0.6629" relative="1" as="geometry">
            <mxPoint as="offset" />
          </mxGeometry>
        </mxCell>
        <mxCell id="Xu9SeJX0aQOKgPznrCXN-45" style="edgeStyle=none;curved=1;rounded=0;orthogonalLoop=1;jettySize=auto;html=1;exitX=1;exitY=0.5;exitDx=0;exitDy=0;fontSize=12;startSize=8;endSize=8;endArrow=none;endFill=0;" edge="1" parent="1" source="Xu9SeJX0aQOKgPznrCXN-50" target="Xu9SeJX0aQOKgPznrCXN-28">
          <mxGeometry relative="1" as="geometry" />
        </mxCell>
        <mxCell id="Xu9SeJX0aQOKgPznrCXN-46" value="49.7" style="edgeLabel;html=1;align=center;verticalAlign=middle;resizable=0;points=[];fontSize=12;" vertex="1" connectable="0" parent="Xu9SeJX0aQOKgPznrCXN-45">
          <mxGeometry x="-0.2504" relative="1" as="geometry">
            <mxPoint x="20" y="-27" as="offset" />
          </mxGeometry>
        </mxCell>
        <mxCell id="Xu9SeJX0aQOKgPznrCXN-47" style="edgeStyle=none;curved=1;rounded=0;orthogonalLoop=1;jettySize=auto;html=1;exitX=1;exitY=0.5;exitDx=0;exitDy=0;fontSize=12;startSize=8;endSize=8;endArrow=none;endFill=0;" edge="1" parent="1" source="Xu9SeJX0aQOKgPznrCXN-50" target="Xu9SeJX0aQOKgPznrCXN-16">
          <mxGeometry relative="1" as="geometry" />
        </mxCell>
        <mxCell id="Xu9SeJX0aQOKgPznrCXN-48" value="10.9" style="edgeLabel;html=1;align=center;verticalAlign=middle;resizable=0;points=[];fontSize=12;" vertex="1" connectable="0" parent="Xu9SeJX0aQOKgPznrCXN-47">
          <mxGeometry x="-0.1218" relative="1" as="geometry">
            <mxPoint as="offset" />
          </mxGeometry>
        </mxCell>
        <mxCell id="Xu9SeJX0aQOKgPznrCXN-50" value="Bus/Tren&lt;br&gt;Santiago" style="ellipse;whiteSpace=wrap;html=1;aspect=fixed;" vertex="1" parent="1">
          <mxGeometry x="116" y="-390" width="80" height="80" as="geometry" />
        </mxCell>
        <mxCell id="Xu9SeJX0aQOKgPznrCXN-51" value="Tren&lt;br&gt;O Burgo" style="ellipse;whiteSpace=wrap;html=1;aspect=fixed;" vertex="1" parent="1">
          <mxGeometry x="400" y="-829" width="80" height="80" as="geometry" />
        </mxCell>
        <mxCell id="Xu9SeJX0aQOKgPznrCXN-55" style="edgeStyle=none;curved=1;rounded=0;orthogonalLoop=1;jettySize=auto;html=1;exitX=1;exitY=0;exitDx=0;exitDy=0;entryX=0.038;entryY=0.702;entryDx=0;entryDy=0;entryPerimeter=0;fontSize=12;startSize=8;endSize=8;endArrow=none;endFill=0;" edge="1" parent="1" source="Xu9SeJX0aQOKgPznrCXN-40" target="Xu9SeJX0aQOKgPznrCXN-35">
          <mxGeometry relative="1" as="geometry" />
        </mxCell>
        <mxCell id="Xu9SeJX0aQOKgPznrCXN-56" value="0.4" style="edgeLabel;html=1;align=center;verticalAlign=middle;resizable=0;points=[];fontSize=12;" vertex="1" connectable="0" parent="Xu9SeJX0aQOKgPznrCXN-55">
          <mxGeometry x="-0.006" relative="1" as="geometry">
            <mxPoint as="offset" />
          </mxGeometry>
        </mxCell>
        <mxCell id="Xu9SeJX0aQOKgPznrCXN-57" style="edgeStyle=none;curved=1;rounded=0;orthogonalLoop=1;jettySize=auto;html=1;exitX=1;exitY=0.5;exitDx=0;exitDy=0;fontSize=12;startSize=8;endSize=8;endArrow=none;endFill=0;" edge="1" parent="1" source="Xu9SeJX0aQOKgPznrCXN-40" target="Xu9SeJX0aQOKgPznrCXN-51">
          <mxGeometry relative="1" as="geometry">
            <mxPoint x="79.2642712474619" y="-618.9957287525381" as="sourcePoint" />
            <mxPoint x="240.73999999999998" y="-596.76" as="targetPoint" />
          </mxGeometry>
        </mxCell>
        <mxCell id="Xu9SeJX0aQOKgPznrCXN-58" value="5" style="edgeLabel;html=1;align=center;verticalAlign=middle;resizable=0;points=[];fontSize=12;" vertex="1" connectable="0" parent="Xu9SeJX0aQOKgPznrCXN-57">
          <mxGeometry x="-0.0373" y="-2" relative="1" as="geometry">
            <mxPoint as="offset" />
          </mxGeometry>
        </mxCell>
        <mxCell id="Xu9SeJX0aQOKgPznrCXN-66" style="edgeStyle=none;curved=1;rounded=0;orthogonalLoop=1;jettySize=auto;html=1;exitX=0;exitY=1;exitDx=0;exitDy=0;entryX=1;entryY=0;entryDx=0;entryDy=0;fontSize=12;startSize=8;endSize=8;endArrow=none;endFill=0;" edge="1" parent="1" source="Xu9SeJX0aQOKgPznrCXN-72" target="Xu9SeJX0aQOKgPznrCXN-23">
          <mxGeometry relative="1" as="geometry" />
        </mxCell>
        <mxCell id="Xu9SeJX0aQOKgPznrCXN-67" value="5.3" style="edgeLabel;html=1;align=center;verticalAlign=middle;resizable=0;points=[];fontSize=12;" vertex="1" connectable="0" parent="Xu9SeJX0aQOKgPznrCXN-66">
          <mxGeometry x="0.0491" y="-6" relative="1" as="geometry">
            <mxPoint x="-1" as="offset" />
          </mxGeometry>
        </mxCell>
        <mxCell id="Xu9SeJX0aQOKgPznrCXN-68" style="edgeStyle=none;curved=1;rounded=0;orthogonalLoop=1;jettySize=auto;html=1;exitX=0;exitY=1;exitDx=0;exitDy=0;entryX=1;entryY=0;entryDx=0;entryDy=0;fontSize=12;startSize=8;endSize=8;endArrow=none;endFill=0;" edge="1" parent="1" source="Xu9SeJX0aQOKgPznrCXN-72" target="Xu9SeJX0aQOKgPznrCXN-51">
          <mxGeometry relative="1" as="geometry" />
        </mxCell>
        <mxCell id="Xu9SeJX0aQOKgPznrCXN-69" value="9.9" style="edgeLabel;html=1;align=center;verticalAlign=middle;resizable=0;points=[];fontSize=12;" vertex="1" connectable="0" parent="Xu9SeJX0aQOKgPznrCXN-68">
          <mxGeometry x="0.0208" relative="1" as="geometry">
            <mxPoint x="-1" as="offset" />
          </mxGeometry>
        </mxCell>
        <mxCell id="Xu9SeJX0aQOKgPznrCXN-70" style="edgeStyle=none;curved=1;rounded=0;orthogonalLoop=1;jettySize=auto;html=1;exitX=1;exitY=1;exitDx=0;exitDy=0;entryX=1;entryY=0.5;entryDx=0;entryDy=0;fontSize=12;startSize=8;endSize=8;endArrow=none;endFill=0;" edge="1" parent="1" source="Xu9SeJX0aQOKgPznrCXN-72" target="Xu9SeJX0aQOKgPznrCXN-16">
          <mxGeometry relative="1" as="geometry">
            <Array as="points">
              <mxPoint x="825" y="-549" />
            </Array>
          </mxGeometry>
        </mxCell>
        <mxCell id="Xu9SeJX0aQOKgPznrCXN-71" value="53" style="edgeLabel;html=1;align=center;verticalAlign=middle;resizable=0;points=[];fontSize=12;" vertex="1" connectable="0" parent="Xu9SeJX0aQOKgPznrCXN-70">
          <mxGeometry x="-0.2915" y="-107" relative="1" as="geometry">
            <mxPoint x="-1" y="-1" as="offset" />
          </mxGeometry>
        </mxCell>
        <mxCell id="Xu9SeJX0aQOKgPznrCXN-72" value="InÃ©s&lt;br&gt;Sada" style="ellipse;whiteSpace=wrap;html=1;aspect=fixed;" vertex="1" parent="1">
          <mxGeometry x="587" y="-1128" width="80" height="80" as="geometry" />
        </mxCell>
        <mxCell id="Xu9SeJX0aQOKgPznrCXN-75" value="11.7" style="edgeLabel;html=1;align=center;verticalAlign=middle;resizable=0;points=[];fontSize=12;" vertex="1" connectable="0" parent="1">
          <mxGeometry x="145.13007013488095" y="-288.5793176637553" as="geometry" />
        </mxCell>
        <mxCell id="Xu9SeJX0aQOKgPznrCXN-77" style="edgeStyle=none;curved=1;rounded=0;orthogonalLoop=1;jettySize=auto;html=1;exitX=0.5;exitY=1;exitDx=0;exitDy=0;entryX=0.705;entryY=0.068;entryDx=0;entryDy=0;entryPerimeter=0;fontSize=12;startSize=8;endSize=8;endArrow=none;endFill=0;" edge="1" parent="1" source="Xu9SeJX0aQOKgPznrCXN-72" target="Xu9SeJX0aQOKgPznrCXN-28">
          <mxGeometry relative="1" as="geometry" />
        </mxCell>
        <mxCell id="Xu9SeJX0aQOKgPznrCXN-78" value="11.7" style="edgeLabel;html=1;align=center;verticalAlign=middle;resizable=0;points=[];fontSize=12;" vertex="1" connectable="0" parent="Xu9SeJX0aQOKgPznrCXN-77">
          <mxGeometry x="-0.0317" relative="1" as="geometry">
            <mxPoint as="offset" />
          </mxGeometry>
        </mxCell>
      </root>
    </mxGraphModel>
  </diagram>
</mxfile>
